<svg xmlns="http://www.w3.org/2000/svg" fill="none" viewBox="0 0 166 48">
  <path fill="#FFA31A" d="M35.35 0h106.42a23.81 23.81 0 1 1 0 47.63H35.35V0Z"/>
  <path fill="#494949" d="m89.41 36.84 6.8-26.08h4.31l6.75 26.08h-3.25l-1.71-6.93h-7.9l-1.71 6.93h-3.29Zm5.65-9.65h6.57l-2-8.03a104.67 104.67 0 0 1-1.29-5.83 94.48 94.48 0 0 1-1.29 5.79l-2 8.07Zm-25.73 9.28V10.39h8.08c1.54 0 2.9.32 4.07.96a6.66 6.66 0 0 1 2.71 2.61c.65 1.12.97 2.43.97 3.93 0 1.76-.47 3.27-1.4 4.54a6.88 6.88 0 0 1-3.71 2.6l5.46 11.44h-3.78l-5-11.08h-4.18v11.08h-3.22Zm3.22-13.97h4.86c1.33 0 2.4-.42 3.21-1.25a4.7 4.7 0 0 0 1.22-3.36c0-1.4-.41-2.52-1.22-3.36a4.28 4.28 0 0 0-3.21-1.25h-4.86v9.22ZM53.57 36.47V13.32h-7.14v-2.93h17.5v2.93H56.8v23.15h-3.22Zm66.5.73c-2.38 0-4.26-.67-5.64-2-1.39-1.34-2.08-3.17-2.08-5.5V17.9c0-2.33.7-4.16 2.08-5.5 1.38-1.33 3.26-2 5.64-2 2.33 0 4.19.68 5.57 2.04 1.38 1.33 2.07 3.16 2.07 5.47h-3.21c0-1.48-.4-2.61-1.18-3.4-.76-.8-1.85-1.21-3.25-1.21s-2.51.39-3.32 1.18c-.79.78-1.18 1.91-1.18 3.39v11.82c0 1.48.4 2.62 1.18 3.43a4.57 4.57 0 0 0 3.32 1.18c1.4 0 2.49-.4 3.25-1.18a4.72 4.72 0 0 0 1.18-3.43h3.21c0 2.31-.69 4.15-2.07 5.5-1.38 1.34-3.24 2-5.57 2Zm14.29-.36V10.76h15v2.93h-11.82v8.07h10.58v2.86h-10.58v9.29h11.83v2.93h-15Z"/>
  <path fill="#24A1DE" d="M47.63 24.19a23.81 23.81 0 1 1-47.63 0 23.81 23.81 0 0 1 47.63 0Z"/>
  <path fill="#fff" d="M17.86 15.29c.9 3.89-.32 7.49-2.7 8.04-2.4.56-5.07-2.14-5.96-6.03-.9-3.89.32-7.5 2.71-8.05 2.4-.55 5.06 2.15 5.95 6.04Zm-5.55 10.54c1.56 3.68.98 7.44-1.28 8.4s-5.35-1.23-6.9-4.9c-1.55-3.68-.98-7.44 1.28-8.4s5.35 1.23 6.9 4.9Zm17.46-10.54c-.9 3.89.32 7.49 2.71 8.04 2.4.56 5.06-2.14 5.95-6.03.9-3.89-.32-7.5-2.71-8.05-2.4-.55-5.06 2.15-5.95 6.04Zm5.71 10.54c-1.55 3.68-.98 7.44 1.28 8.4s5.35-1.23 6.9-4.9c1.56-3.68.98-7.44-1.28-8.4s-5.35 1.23-6.9 4.9Zm-16.3-14.39c-.13 3.98 1.75 7.29 4.2 7.37 2.46.09 4.56-3.07 4.69-7.06.13-3.99-1.75-7.29-4.2-7.38-2.46-.08-4.56 3.08-4.69 7.07Zm11.37 17.88c2 3.33 5.52 13.1-.58 11.76-6.1-1.34-6.1-1.34-12.17 0s-3.47-8.24-1.24-11.94c5.1-8.45 8.76-8.49 13.99.18Z"/>
</svg>
